<?xml version="1.0" encoding="UTF-8"?><svg id="Layer_2" xmlns="http://www.w3.org/2000/svg" viewBox="0 0 52.82 43.6"><defs><style>.cls-1{fill:#74a59d;fill-rule:evenodd;stroke:#268074;stroke-miterlimit:10;stroke-width:2.16px;}.cls-2{fill:#fff;}</style></defs><g id="Controls"><g id="Buttons"><g id="Buttons_DOWN"><g id="bD__100"><path class="cls-1" d="M12.94,8.86L2.48,26.97c-3.99,6.91,1,15.55,8.98,15.55h29.9c7.98,0,12.97-8.64,8.98-15.55l-10.46-18.12C33.89-1.51,18.93-1.51,12.94,8.86Z"/><g><path class="cls-2" d="M25.05,13.91v-5.88h2.73v5.88h5.88v2.73h-5.88v5.88h-2.73v-5.88h-5.88v-2.73h5.88Z"/><path class="cls-2" d="M16.55,37.42h-1.12v-6.9l-1.57,1.31-.67-.78,2.35-1.91h1.01v8.28Z"/><path class="cls-2" d="M22.58,28.93c.49,0,.91,.11,1.27,.34,.35,.23,.65,.54,.88,.93,.23,.39,.4,.86,.51,1.39s.16,1.1,.16,1.7-.05,1.18-.16,1.7c-.11,.53-.28,.99-.51,1.38-.23,.39-.52,.7-.88,.93-.35,.23-.78,.34-1.27,.34s-.92-.11-1.28-.34c-.36-.23-.65-.54-.88-.93-.23-.39-.4-.85-.51-1.38-.11-.53-.16-1.09-.16-1.7s.05-1.17,.16-1.7c.11-.53,.28-.99,.51-1.39,.23-.39,.52-.7,.88-.93,.36-.23,.78-.34,1.28-.34Zm0,.95c-.34,0-.62,.11-.84,.33-.22,.22-.39,.5-.51,.84-.12,.34-.2,.71-.25,1.11s-.07,.77-.07,1.12,.02,.73,.07,1.12,.13,.76,.25,1.1c.12,.34,.29,.61,.51,.84,.22,.22,.5,.33,.84,.33s.61-.11,.83-.33c.21-.22,.38-.5,.51-.84s.21-.7,.26-1.1c.05-.4,.07-.77,.07-1.12s-.02-.73-.07-1.12c-.05-.4-.13-.77-.26-1.11-.12-.34-.29-.62-.51-.84-.21-.22-.49-.33-.83-.33Z"/><path class="cls-2" d="M29.54,28.93c.49,0,.91,.11,1.27,.34,.35,.23,.65,.54,.88,.93,.23,.39,.4,.86,.51,1.39s.16,1.1,.16,1.7-.05,1.18-.16,1.7c-.11,.53-.28,.99-.51,1.38-.23,.39-.52,.7-.88,.93-.35,.23-.78,.34-1.27,.34s-.92-.11-1.28-.34c-.36-.23-.65-.54-.88-.93-.23-.39-.4-.85-.51-1.38-.11-.53-.16-1.09-.16-1.7s.05-1.17,.16-1.7c.11-.53,.28-.99,.51-1.39,.23-.39,.52-.7,.88-.93,.36-.23,.78-.34,1.28-.34Zm0,.95c-.34,0-.62,.11-.84,.33-.22,.22-.39,.5-.51,.84-.12,.34-.2,.71-.25,1.11s-.07,.77-.07,1.12,.02,.73,.07,1.12,.13,.76,.25,1.1c.12,.34,.29,.61,.51,.84,.22,.22,.5,.33,.84,.33s.61-.11,.83-.33c.21-.22,.38-.5,.51-.84s.21-.7,.26-1.1c.05-.4,.07-.77,.07-1.12s-.02-.73-.07-1.12c-.05-.4-.13-.77-.26-1.11-.12-.34-.29-.62-.51-.84-.21-.22-.49-.33-.83-.33Z"/><path class="cls-2" d="M36.93,32.23l1.97-3.09h1.36l-2.64,3.92,3.01,4.36h-1.46l-2.27-3.49-2.22,3.49h-1.43l2.96-4.39-2.67-3.9h1.42l1.99,3.09Z"/></g></g></g></g></g></svg>