<?xml version="1.0" encoding="UTF-8"?><svg id="Layer_2" xmlns="http://www.w3.org/2000/svg" viewBox="0 0 52.82 43.6"><defs><style>.cls-1{fill:#74a59d;fill-rule:evenodd;stroke:#268074;stroke-miterlimit:10;stroke-width:2.16px;}.cls-2{fill:#fff;}</style></defs><g id="Controls"><g id="Buttons"><g id="Buttons_DOWN"><g id="bD__1"><path class="cls-1" d="M12.94,8.86L2.48,26.97c-3.99,6.91,1,15.55,8.98,15.55h29.9c7.98,0,12.97-8.64,8.98-15.55l-10.46-18.12C33.89-1.51,18.93-1.51,12.94,8.86Z"/><g><path class="cls-2" d="M25.05,13.91v-5.88h2.73v5.88h5.88v2.73h-5.88v5.88h-2.73v-5.88h-5.88v-2.73h5.88Z"/><path class="cls-2" d="M23.52,37.42h-1.12v-6.9l-1.57,1.31-.67-.78,2.35-1.91h1.01v8.28Z"/><path class="cls-2" d="M29.96,32.23l1.97-3.09h1.36l-2.64,3.92,3.01,4.36h-1.46l-2.27-3.49-2.22,3.49h-1.43l2.96-4.39-2.67-3.9h1.42l1.99,3.09Z"/></g></g></g></g></g></svg>