<?xml version="1.0" encoding="UTF-8"?><svg id="Layer_2" xmlns="http://www.w3.org/2000/svg" viewBox="0 0 71.28 71.28"><defs><style>.cls-1{fill:#fff;}.cls-2{fill:#931943;}.cls-3{fill:#9a3760;fill-rule:evenodd;}</style></defs><g id="Controls"><g id="Buttons"><g id="Buttons_DOWN"><g id="bD_Stop"><g id="Button"><path class="cls-3" d="M35.64,69.65C16.89,69.65,1.63,54.39,1.63,35.64S16.89,1.63,35.64,1.63s34.02,15.26,34.02,34.01-15.26,34.02-34.02,34.02Z"/><path class="cls-2" d="M35.64,3.25c17.89,0,32.39,14.5,32.39,32.39s-14.5,32.39-32.39,32.39S3.25,53.53,3.25,35.64,17.75,3.25,35.64,3.25m0-3.25C15.99,0,0,15.99,0,35.64s15.99,35.64,35.64,35.64,35.64-15.99,35.64-35.64S55.3,0,35.64,0h0Z"/></g><path id="i_Stop" class="cls-1" d="M28,51.82c-1.06,0-2.03-.56-2.56-1.48l-7.64-13.23c-.53-.91-.53-2.04,0-2.95l7.64-13.23c.53-.91,1.5-1.47,2.56-1.47h15.28c1.06,0,2.03,.56,2.56,1.47l7.64,13.23c.53,.91,.53,2.04,0,2.95l-7.64,13.23c-.53,.91-1.5,1.48-2.56,1.48h-15.28Zm15.28-2.95l7.64-13.23-7.64-13.23h-15.28l-7.64,13.23,7.64,13.23h15.28Z"/></g></g></g></g></svg>