<?xml version="1.0" encoding="UTF-8"?><svg id="Layer_2" xmlns="http://www.w3.org/2000/svg" viewBox="0 0 68.03 68.03"><defs><style>.cls-1{fill:#0388b2;stroke:#175672;stroke-miterlimit:10;stroke-width:3.25px;}.cls-1,.cls-2{fill-rule:evenodd;}.cls-2{fill:#fff;}</style></defs><g id="Controls"><g id="Buttons"><g id="Buttons_DOWN"><g id="bD_Start"><path id="Button" class="cls-1" d="M34.02,1.63c17.89,0,32.39,14.5,32.39,32.39s-14.5,32.39-32.39,32.39S1.63,51.9,1.63,34.01,16.13,1.63,34.02,1.63Z"/><g id="i_Start_Req"><path class="cls-2" d="M32.41,45.5l-2.2-2.2,9.3-9.3-9.27-9.27,2.2-2.2,10.38,10.38c.29,.29,.46,.69,.46,1.1s-.17,.81-.46,1.1l-10.4,10.4Z"/><path class="cls-2" d="M34.02,52.69c-10.3,0-18.68-8.38-18.68-18.68,0-.75,.61-1.35,1.35-1.35s1.35,.6,1.35,1.35c0,8.81,7.17,15.98,15.98,15.98s15.98-7.17,15.98-15.98-7.17-15.98-15.98-15.98v-2.7c10.3,0,18.68,8.38,18.68,18.68s-8.38,18.68-18.68,18.68Z"/></g></g></g></g></g></svg>