<?xml version="1.0" encoding="UTF-8"?><svg id="Layer_2" xmlns="http://www.w3.org/2000/svg" viewBox="0 0 58.69 48.45"><defs><style>.cls-1{fill:#fff;}.cls-2{fill:#b0ccc9;fill-rule:evenodd;stroke:#268074;stroke-miterlimit:10;stroke-width:2.4px;}</style></defs><g id="Controls"><g id="Buttons"><g id="Buttons-2"><path class="cls-2" d="M14.38,9.84L2.76,29.97c-4.43,7.68,1.11,17.28,9.98,17.28H45.96c8.87,0,14.41-9.6,9.98-17.28l-11.62-20.13C37.66-1.68,21.03-1.68,14.38,9.84Z"/><g><path class="cls-1" d="M27.83,15.46v-6.54h3.03v6.54h6.54v3.03h-6.54v6.54h-3.03v-6.54h-6.54v-3.03h6.54Z"/><path class="cls-1" d="M26.13,41.58h-1.25v-7.67l-1.74,1.46-.74-.87,2.61-2.12h1.12v9.21Z"/><path class="cls-1" d="M33.29,35.81l2.18-3.43h1.51l-2.94,4.36,3.34,4.85h-1.62l-2.52-3.87-2.47,3.87h-1.59l3.29-4.88-2.96-4.33h1.57l2.21,3.43Z"/></g></g></g></g></svg>