<?xml version="1.0" encoding="UTF-8"?><svg id="Layer_2" xmlns="http://www.w3.org/2000/svg" viewBox="0 0 73.95 73.94"><defs><style>.cls-1{fill:#00aeef;stroke:#175672;stroke-miterlimit:10;stroke-width:3.53px;}.cls-1,.cls-2{fill-rule:evenodd;}.cls-2{fill:#fff;}</style></defs><g id="Controls"><g id="Buttons"><g id="Buttons-2"><g id="B_Start"><path id="Button" class="cls-1" d="M36.98,1.77c19.44,0,35.21,15.76,35.21,35.2s-15.76,35.21-35.21,35.21S1.77,56.41,1.77,36.97,17.53,1.77,36.98,1.77Z"/><g id="i_Start_Req"><path class="cls-2" d="M35.22,49.46l-2.39-2.39,10.11-10.11-10.08-10.08,2.39-2.39,11.28,11.28c.32,.32,.5,.75,.5,1.2s-.18,.88-.5,1.2l-11.31,11.31Z"/><path class="cls-2" d="M36.98,57.27c-11.2,0-20.31-9.11-20.31-20.3,0-.81,.66-1.47,1.47-1.47s1.47,.66,1.47,1.47c0,9.58,7.79,17.37,17.37,17.37s17.37-7.79,17.37-17.37-7.79-17.37-17.37-17.37v-2.93c11.2,0,20.3,9.11,20.3,20.3s-9.11,20.3-20.3,20.3Z"/></g></g></g></g></g></svg>