<?xml version="1.0" encoding="UTF-8"?><svg id="Layer_2" xmlns="http://www.w3.org/2000/svg" viewBox="0 0 73.95 73.94"><defs><style>.cls-1{fill:#fff;}.cls-2{fill:#bf4473;fill-rule:evenodd;stroke:#931943;stroke-miterlimit:10;stroke-width:3.53px;}</style></defs><g id="Controls"><g id="Buttons"><g id="Buttons-2"><g id="b_stop"><path id="Button" class="cls-2" d="M36.98,1.77c19.44,0,35.21,15.76,35.21,35.2s-15.76,35.21-35.21,35.21S1.77,56.41,1.77,36.97,17.53,1.77,36.98,1.77Z"/><path id="i_Stop" class="cls-1" d="M28.67,54.56c-1.15,0-2.21-.61-2.78-1.6l-8.3-14.38c-.57-.99-.57-2.22,0-3.21l8.3-14.38c.57-.99,1.63-1.6,2.78-1.6h16.61c1.15,0,2.21,.61,2.78,1.6l8.3,14.38c.57,.99,.57,2.22,0,3.21l-8.3,14.38c-.57,.99-1.63,1.6-2.78,1.6H28.67Zm16.61-3.21l8.3-14.38-8.3-14.38H28.67l-8.3,14.38,8.3,14.38h16.61Z"/></g></g></g></g></svg>