<?xml version="1.0" encoding="UTF-8"?><svg id="Layer_2" xmlns="http://www.w3.org/2000/svg" viewBox="0 0 64.31 54.05"><defs><style>.cls-1{fill:#fff;}.cls-2{fill:#268074;}.cls-3{fill:#b0ccc9;fill-rule:evenodd;}</style></defs><g id="Controls"><g id="Buttons"><g id="Buttons_OVER"><g id="BO__10"><g><path class="cls-3" d="M15.54,52.05c-4.89,0-9.26-2.53-11.71-6.76-2.44-4.23-2.44-9.29,0-13.52L15.46,11.64c3.49-6.04,9.73-9.64,16.7-9.64s13.21,3.6,16.7,9.64l11.62,20.13c2.44,4.23,2.44,9.29,0,13.52-2.44,4.23-6.82,6.76-11.71,6.76H15.54Z"/><path class="cls-2" d="M32.15,4c5.82,0,11.64,2.88,14.96,8.64l11.62,20.13c4.43,7.68-1.11,17.28-9.98,17.28H15.54c-8.87,0-14.41-9.6-9.98-17.28L17.19,12.64c3.33-5.76,9.15-8.64,14.96-8.64m0-4c-7.69,0-14.58,3.98-18.43,10.64L2.1,30.77c-2.81,4.86-2.81,10.66,0,15.52,2.81,4.86,7.83,7.76,13.44,7.76H48.76c5.61,0,10.64-2.9,13.44-7.76,2.81-4.86,2.81-10.66,0-15.52l-11.62-20.13C46.74,3.98,39.85,0,32.15,0h0Z"/></g><g><path class="cls-1" d="M30.64,18.26v-6.54h3.03v6.54h6.54v3.03h-6.54v6.54h-3.03v-6.54h-6.54v-3.03h6.54Z"/><path class="cls-1" d="M25.07,44.38h-1.25v-7.67l-1.74,1.46-.74-.87,2.61-2.12h1.12v9.21Z"/><path class="cls-1" d="M31.76,34.94c.55,0,1.02,.13,1.41,.38s.72,.6,.98,1.03c.25,.44,.44,.95,.57,1.54,.12,.59,.18,1.22,.18,1.89s-.06,1.31-.18,1.89c-.12,.59-.31,1.1-.57,1.53-.26,.44-.58,.78-.98,1.03s-.86,.38-1.41,.38-1.02-.13-1.42-.38c-.4-.25-.73-.6-.98-1.03-.26-.44-.44-.95-.57-1.53-.12-.58-.18-1.22-.18-1.89s.06-1.3,.18-1.89c.12-.59,.31-1.1,.57-1.54s.58-.78,.98-1.03c.4-.25,.87-.38,1.42-.38Zm0,1.05c-.38,0-.69,.12-.94,.37-.24,.25-.43,.56-.57,.94-.13,.38-.23,.79-.28,1.23-.05,.44-.08,.86-.08,1.25s.03,.81,.08,1.25c.05,.44,.14,.85,.28,1.22,.13,.37,.32,.68,.57,.93s.55,.37,.94,.37,.68-.12,.92-.37,.43-.56,.57-.93c.14-.37,.23-.78,.29-1.22,.05-.44,.08-.86,.08-1.25s-.03-.81-.08-1.25c-.05-.44-.15-.85-.29-1.23-.14-.38-.33-.69-.57-.94-.24-.25-.54-.37-.92-.37Z"/><path class="cls-1" d="M39.97,38.61l2.18-3.43h1.51l-2.94,4.36,3.34,4.85h-1.62l-2.52-3.87-2.47,3.87h-1.59l3.29-4.88-2.96-4.33h1.57l2.21,3.43Z"/></g></g></g></g></g></svg>