<?xml version="1.0" encoding="UTF-8"?><svg id="Layer_2" xmlns="http://www.w3.org/2000/svg" viewBox="0 0 64.31 54.05"><defs><style>.cls-1{font-family:AvenirNext-Medium, 'Avenir Next';font-size:13px;}.cls-1,.cls-2{fill:#fff;}.cls-3{fill:#802c7d;}.cls-4{letter-spacing:-.01em;}.cls-2{font-family:AvenirNextCondensed-Bold, 'Avenir Next Condensed';font-size:29.72px;}.cls-5{fill:#ccbacb;fill-rule:evenodd;}</style></defs><g id="Controls"><g id="Buttons"><g id="Buttons_OVER"><g id="bO-100"><g><path class="cls-5" d="M32.15,52.05c-6.97,0-13.21-3.6-16.7-9.64L3.84,22.28c-2.44-4.23-2.44-9.29,0-13.52C6.28,4.53,10.66,2,15.54,2H48.76c4.89,0,9.27,2.53,11.71,6.76s2.44,9.29,0,13.52l-11.62,20.13c-3.48,6.04-9.73,9.64-16.7,9.64Z"/><path class="cls-3" d="M48.76,4c8.87,0,14.41,9.6,9.98,17.28l-11.62,20.13c-3.33,5.76-9.15,8.64-14.96,8.64s-11.64-2.88-14.96-8.64L5.57,21.28C1.13,13.6,6.68,4,15.54,4H48.76m0-4H15.54C9.93,0,4.91,2.9,2.1,7.76c-2.81,4.86-2.81,10.66,0,15.52l11.62,20.13c3.85,6.66,10.74,10.64,18.43,10.64s14.58-3.98,18.43-10.64l11.62-20.13c2.81-4.86,2.81-10.66,0-15.52-2.81-4.86-7.83-7.76-13.44-7.76h0Z"/></g><text class="cls-1" transform="translate(16.29 19.95)"><tspan x="0" y="0">100</tspan><tspan class="cls-4" x="23.21" y="0">X</tspan></text><text class="cls-2" transform="translate(22.57 41.95) scale(2.6 1)"><tspan x="0" y="0">-</tspan></text></g></g></g></g></svg>