<?xml version="1.0" encoding="UTF-8"?><svg id="Layer_2" xmlns="http://www.w3.org/2000/svg" viewBox="0 0 116 40.4"><defs><style>.cls-1{letter-spacing:0em;}.cls-2{fill:#939598;}.cls-3{fill:#6d6e71;}.cls-4{fill:#e6e7e8;font-family:AvenirNextCondensed-Regular, 'Avenir Next Condensed';font-size:20.9px;}.cls-5{letter-spacing:0em;}</style></defs><g id="Controls"><g id="Buttons"><g id="Buttons_OVER"><g id="bO_reset"><g><rect class="cls-2" x="2" y="2" width="112" height="36.4" rx="9.2" ry="9.2"/><path class="cls-3" d="M104.8,4c3.96,0,7.2,3.24,7.2,7.2V29.2c0,3.96-3.24,7.2-7.2,7.2H11.2c-3.96,0-7.2-3.24-7.2-7.2V11.2c0-3.96,3.24-7.2,7.2-7.2H104.8m0-4H11.2C5.02,0,0,5.02,0,11.2V29.2c0,6.18,5.02,11.2,11.2,11.2H104.8c6.18,0,11.2-5.02,11.2-11.2V11.2c0-6.18-5.02-11.2-11.2-11.2h0Z"/></g><text id="t_Reset" class="cls-4" transform="translate(39.67 25.87)"><tspan class="cls-1" x="0" y="0">r</tspan><tspan class="cls-5" x="5.81" y="0">eset</tspan></text></g></g></g></g></svg>