<?xml version="1.0" encoding="UTF-8"?><svg id="Layer_2" xmlns="http://www.w3.org/2000/svg" viewBox="0 0 80.42 80.41"><defs><style>.cls-1{fill:#175672;}.cls-2{fill:#fff;}.cls-2,.cls-3{fill-rule:evenodd;}.cls-3{fill:#00aeef;}</style></defs><g id="Controls"><g id="Buttons"><g id="Buttons_OVER"><g id="bD_Start"><g id="Button"><path class="cls-3" d="M40.21,77.91C19.42,77.91,2.5,61,2.5,40.2S19.42,2.5,40.21,2.5s37.71,16.91,37.71,37.7-16.92,37.71-37.71,37.71Z"/><path class="cls-1" d="M40.21,5c19.44,0,35.21,15.76,35.21,35.2s-15.76,35.21-35.21,35.21S5,59.65,5,40.2,20.76,5,40.21,5m0-5C18.04,0,0,18.03,0,40.2s18.04,40.21,40.21,40.21,40.21-18.04,40.21-40.21S62.38,0,40.21,0h0Z"/></g><g id="i_Start_Req"><path class="cls-2" d="M38.46,52.69l-2.39-2.39,10.11-10.11-10.08-10.08,2.39-2.39,11.28,11.28c.32,.32,.5,.75,.5,1.2s-.18,.88-.5,1.2l-11.31,11.31Z"/><path class="cls-2" d="M40.21,60.51c-11.2,0-20.31-9.11-20.31-20.3,0-.81,.66-1.47,1.47-1.47s1.47,.66,1.47,1.47c0,9.58,7.79,17.37,17.37,17.37s17.37-7.79,17.37-17.37-7.79-17.37-17.37-17.37v-2.93c11.2,0,20.3,9.11,20.3,20.3s-9.11,20.3-20.3,20.3Z"/></g></g></g></g></g></svg>