<?xml version="1.0" encoding="UTF-8"?><svg id="Layer_2" xmlns="http://www.w3.org/2000/svg" viewBox="0 0 80.42 80.41"><defs><style>.cls-1{fill:#fff;}.cls-2{fill:#7c1236;}.cls-3{fill:#bf4473;fill-rule:evenodd;}</style></defs><g id="Controls"><g id="Buttons"><g id="Buttons_OVER"><g id="bO_stop"><g id="Button"><path class="cls-3" d="M40.21,77.91C19.42,77.91,2.5,61,2.5,40.2S19.42,2.5,40.21,2.5s37.71,16.91,37.71,37.7-16.92,37.71-37.71,37.71Z"/><path class="cls-2" d="M40.21,5c19.44,0,35.21,15.76,35.21,35.2s-15.76,35.21-35.21,35.21S5,59.65,5,40.2,20.76,5,40.21,5m0-5C18.04,0,0,18.03,0,40.2s18.04,40.21,40.21,40.21,40.21-18.04,40.21-40.21S62.38,0,40.21,0h0Z"/></g><path id="i_Stop" class="cls-1" d="M31.9,57.8c-1.15,0-2.21-.61-2.78-1.6l-8.3-14.38c-.57-.99-.57-2.22,0-3.21l8.3-14.38c.57-.99,1.63-1.6,2.78-1.6h16.61c1.15,0,2.21,.61,2.78,1.6l8.3,14.38c.57,.99,.57,2.22,0,3.21l-8.3,14.38c-.57,.99-1.63,1.6-2.78,1.6H31.9Zm16.61-3.21l8.3-14.38-8.3-14.38H31.9l-8.3,14.38,8.3,14.38h16.61Z"/></g></g></g></g></svg>